# MagicaVoxel @ Ephtracy

# group
o 

# material
mtllib closet locked-in 2.mtl
usemtl palette

# normals
vn -1 0 0
vn 1 0 0
vn 0 0 1
vn 0 0 -1
vn 0 -1 0
vn 0 1 0

# texcoords
vt 0.845703 0.5
vt 0.908203 0.5
vt 0.939453 0.5
vt 0.970703 0.5
vt 0.974609 0.5
vt 0.978516 0.5
vt 0.982422 0.5
vt 0.986328 0.5
vt 0.990234 0.5

# verts
v 0 2 0
v 0 2 -4
v 0 2.1 0
v 0 2.1 -0.1
v 0 2.1 -4
v 0 2.2 0
v 0 2.2 -0.1
v 0 5.9 -0.1
v 0 5.9 -4
v 0 6 0
v 0 6 -4
v 0.4 2.1 -0.5
v 0.4 2.1 -0.6
v 0.4 2.1 -0.9
v 0.4 2.1 -1
v 0.4 2.5 -0.6
v 0.4 2.5 -0.9
v 0.4 2.6 -0.5
v 0.4 2.6 -1
v 0.5 2.6 -0.7
v 0.5 2.6 -0.8
v 0.5 2.7 -0.7
v 0.5 2.7 -0.8
v 0.5 2.9 -0.6
v 0.5 2.9 -0.9
v 0.5 3.2 -0.6
v 0.5 3.2 -0.9
v 0.6 2.7 -0.7
v 0.6 2.7 -0.8
v 0.6 2.9 -0.7
v 0.6 2.9 -0.8
v 0.7 3.1 -0.7
v 0.7 3.1 -0.8
v 0.7 3.2 -0.7
v 0.7 3.2 -0.8
v 0.8 2.1 -0.5
v 0.8 2.1 -0.6
v 0.8 2.1 -0.9
v 0.8 2.1 -1
v 0.8 2.5 -0.5
v 0.8 2.5 -0.6
v 0.8 2.5 -0.9
v 0.8 2.5 -1
v 1.2 3.3 0
v 1.2 3.3 -0.1
v 1.2 3.9 0
v 1.2 3.9 -0.1
v 1.2 4 0
v 1.2 4 -0.1
v 1.2 4.6 0
v 1.2 4.6 -0.1
v 1.8 3.4 -0.1
v 1.8 3.4 -0.3
v 1.8 4.4 -0.1
v 1.8 4.4 -0.3
v 2.5 3.5 -0.1
v 2.5 3.5 -0.2
v 2.5 3.6 -0.2
v 2.5 3.7 -0.2
v 2.5 3.9 -0.2
v 2.5 4 -0.2
v 2.5 4.3 -0.1
v 2.5 4.3 -0.2
v 3.2 2.1 -0.1
v 3.2 2.1 -2.3
v 3.2 2.1 -3.5
v 3.2 2.1 -4
v 3.2 2.2 -0.1
v 3.2 2.2 -2.3
v 3.2 2.2 -3.5
v 3.2 2.2 -4
v 3.2 5.3 -2.3
v 3.2 5.3 -3.5
v 3.2 5.9 -0.1
v 3.2 5.9 -4
v 0.5 2.1 -0.5
v 0.5 2.1 -0.6
v 0.5 2.1 -0.9
v 0.5 2.1 -1
v 0.5 2.5 -0.5
v 0.5 2.5 -0.6
v 0.5 2.5 -0.9
v 0.5 2.5 -1
v 0.6 3.1 -0.7
v 0.6 3.1 -0.8
v 0.6 3.2 -0.7
v 0.6 3.2 -0.8
v 0.6 3.3 0
v 0.6 3.3 -0.1
v 0.6 3.9 0
v 0.6 3.9 -0.1
v 0.6 4 0
v 0.6 4 -0.1
v 0.6 4.6 0
v 0.6 4.6 -0.1
v 0.7 2.7 -0.7
v 0.7 2.7 -0.8
v 0.7 2.9 -0.7
v 0.7 2.9 -0.8
v 0.8 2.6 -0.7
v 0.8 2.6 -0.8
v 0.8 2.7 -0.7
v 0.8 2.7 -0.8
v 0.8 2.9 -0.6
v 0.8 2.9 -0.9
v 0.8 3.2 -0.6
v 0.8 3.2 -0.9
v 0.9 2.1 -0.5
v 0.9 2.1 -0.6
v 0.9 2.1 -0.9
v 0.9 2.1 -1
v 0.9 2.5 -0.6
v 0.9 2.5 -0.9
v 0.9 2.6 -0.5
v 0.9 2.6 -1
v 1.9 3.5 -0.1
v 1.9 3.5 -0.2
v 1.9 3.6 -0.2
v 1.9 3.7 -0.2
v 1.9 4.3 -0.1
v 1.9 4.3 -0.2
v 2.6 3.4 -0.1
v 2.6 3.4 -0.3
v 2.6 4.4 -0.1
v 2.6 4.4 -0.3
v 3.5 2 0
v 3.5 2 -4
v 3.5 2.1 -2.2
v 3.5 2.1 -2.3
v 3.5 2.1 -3.5
v 3.5 2.2 -2.2
v 3.5 2.2 -2.3
v 3.5 5.3 -2.3
v 3.5 5.3 -3.5
v 3.5 6 0
v 3.5 6 -4
v 0 2 0
v 0 2.1 0
v 0 2.2 0
v 0 6 0
v 0.4 3.1 0
v 0.4 4.8 0
v 0.5 3.2 0
v 0.5 4.7 0
v 0.6 3.3 0
v 0.6 3.9 0
v 0.6 4 0
v 0.6 4.6 0
v 1.2 3.3 0
v 1.2 3.9 0
v 1.2 4 0
v 1.2 4.6 0
v 1.3 3.2 0
v 1.3 4.7 0
v 1.4 3.1 0
v 1.4 4.8 0
v 3.2 2.1 0
v 3.2 2.2 0
v 3.5 2 0
v 3.5 6 0
v 1.9 3.5 -0.2
v 1.9 3.6 -0.2
v 1.9 3.7 -0.2
v 1.9 4.3 -0.2
v 2 3.6 -0.2
v 2 3.7 -0.2
v 2 4 -0.2
v 2 4.1 -0.2
v 2.1 3.7 -0.2
v 2.1 3.8 -0.2
v 2.2 3.6 -0.2
v 2.2 3.7 -0.2
v 2.2 3.8 -0.2
v 2.2 4 -0.2
v 2.2 4.1 -0.2
v 2.3 3.6 -0.2
v 2.3 3.7 -0.2
v 2.3 3.8 -0.2
v 2.3 3.9 -0.2
v 2.4 3.8 -0.2
v 2.4 3.9 -0.2
v 2.4 4 -0.2
v 2.5 3.5 -0.2
v 2.5 3.6 -0.2
v 2.5 3.7 -0.2
v 2.5 3.9 -0.2
v 2.5 4 -0.2
v 2.5 4.3 -0.2
v 0.4 2.1 -0.5
v 0.4 2.6 -0.5
v 0.5 2.1 -0.5
v 0.5 2.5 -0.5
v 0.8 2.1 -0.5
v 0.8 2.5 -0.5
v 0.9 2.1 -0.5
v 0.9 2.6 -0.5
v 0.5 2.9 -0.6
v 0.5 3.2 -0.6
v 0.8 2.9 -0.6
v 0.8 3.2 -0.6
v 0.5 2.6 -0.7
v 0.5 2.7 -0.7
v 0.6 2.7 -0.7
v 0.6 2.9 -0.7
v 0.7 2.7 -0.7
v 0.7 2.9 -0.7
v 0.8 2.6 -0.7
v 0.8 2.7 -0.7
v 0.6 3.1 -0.8
v 0.6 3.2 -0.8
v 0.7 3.1 -0.8
v 0.7 3.2 -0.8
v 0.4 2.1 -0.9
v 0.4 2.5 -0.9
v 0.5 2.1 -0.9
v 0.5 2.5 -0.9
v 0.8 2.1 -0.9
v 0.8 2.5 -0.9
v 0.9 2.1 -0.9
v 0.9 2.5 -0.9
v 3.2 2.1 -3.5
v 3.2 2.2 -3.5
v 3.2 5.3 -3.5
v 3.3 2.1 -3.5
v 3.3 2.2 -3.5
v 3.5 2.1 -3.5
v 3.5 5.3 -3.5
v 0 2.1 -0.1
v 0 2.2 -0.1
v 0 5.9 -0.1
v 0.4 3.1 -0.1
v 0.4 4.8 -0.1
v 0.5 3.2 -0.1
v 0.5 4.7 -0.1
v 0.6 3.3 -0.1
v 0.6 3.9 -0.1
v 0.6 4 -0.1
v 0.6 4.6 -0.1
v 1.2 3.3 -0.1
v 1.2 3.9 -0.1
v 1.2 4 -0.1
v 1.2 4.6 -0.1
v 1.3 3.2 -0.1
v 1.3 4.7 -0.1
v 1.4 3.1 -0.1
v 1.4 4.8 -0.1
v 1.8 3.4 -0.1
v 1.8 4.4 -0.1
v 1.9 3.5 -0.1
v 1.9 4.3 -0.1
v 2.5 3.5 -0.1
v 2.5 4.3 -0.1
v 2.6 3.4 -0.1
v 2.6 4.4 -0.1
v 3.2 2.1 -0.1
v 3.2 2.2 -0.1
v 3.2 5.9 -0.1
v 1.8 3.4 -0.3
v 1.8 4.4 -0.3
v 1.9 3.5 -0.3
v 1.9 3.6 -0.3
v 1.9 3.7 -0.3
v 1.9 4.3 -0.3
v 2 3.6 -0.3
v 2 3.7 -0.3
v 2 4 -0.3
v 2 4.1 -0.3
v 2.1 3.7 -0.3
v 2.1 3.8 -0.3
v 2.2 3.6 -0.3
v 2.2 3.7 -0.3
v 2.2 3.8 -0.3
v 2.2 4 -0.3
v 2.2 4.1 -0.3
v 2.3 3.6 -0.3
v 2.3 3.7 -0.3
v 2.3 3.8 -0.3
v 2.3 3.9 -0.3
v 2.4 3.8 -0.3
v 2.4 3.9 -0.3
v 2.4 4 -0.3
v 2.5 3.5 -0.3
v 2.5 3.6 -0.3
v 2.5 3.7 -0.3
v 2.5 3.9 -0.3
v 2.5 4 -0.3
v 2.5 4.3 -0.3
v 2.6 3.4 -0.3
v 2.6 4.4 -0.3
v 0.4 2.1 -0.6
v 0.4 2.5 -0.6
v 0.5 2.1 -0.6
v 0.5 2.5 -0.6
v 0.8 2.1 -0.6
v 0.8 2.5 -0.6
v 0.9 2.1 -0.6
v 0.9 2.5 -0.6
v 0.6 3.1 -0.7
v 0.6 3.2 -0.7
v 0.7 3.1 -0.7
v 0.7 3.2 -0.7
v 0.5 2.6 -0.8
v 0.5 2.7 -0.8
v 0.6 2.7 -0.8
v 0.6 2.9 -0.8
v 0.7 2.7 -0.8
v 0.7 2.9 -0.8
v 0.8 2.6 -0.8
v 0.8 2.7 -0.8
v 0.5 2.9 -0.9
v 0.5 3.2 -0.9
v 0.8 2.9 -0.9
v 0.8 3.2 -0.9
v 0.4 2.1 -1
v 0.4 2.6 -1
v 0.5 2.1 -1
v 0.5 2.5 -1
v 0.8 2.1 -1
v 0.8 2.5 -1
v 0.9 2.1 -1
v 0.9 2.6 -1
v 3.2 2.1 -2.3
v 3.2 2.2 -2.3
v 3.2 5.3 -2.3
v 3.5 2.1 -2.3
v 3.5 2.2 -2.3
v 3.5 5.3 -2.3
v 0 2 -4
v 0 2.1 -4
v 0 5.9 -4
v 0 6 -4
v 3.2 2.1 -4
v 3.2 2.2 -4
v 3.2 5.9 -4
v 3.3 2.1 -4
v 3.3 2.2 -4
v 3.5 2 -4
v 3.5 6 -4
v 0 2 0
v 3.5 2 0
v 0 2 -4
v 3.5 2 -4
v 0.5 2.5 -0.5
v 0.8 2.5 -0.5
v 0.4 2.5 -0.6
v 0.5 2.5 -0.6
v 0.8 2.5 -0.6
v 0.9 2.5 -0.6
v 0.4 2.5 -0.9
v 0.5 2.5 -0.9
v 0.8 2.5 -0.9
v 0.9 2.5 -0.9
v 0.5 2.5 -1
v 0.8 2.5 -1
v 0.5 2.9 -0.6
v 0.8 2.9 -0.6
v 0.6 2.9 -0.7
v 0.7 2.9 -0.7
v 0.6 2.9 -0.8
v 0.7 2.9 -0.8
v 0.5 2.9 -0.9
v 0.8 2.9 -0.9
v 1.8 3.4 -0.1
v 2.6 3.4 -0.1
v 1.8 3.4 -0.3
v 2.6 3.4 -0.3
v 0.6 3.9 0
v 1.2 3.9 0
v 0.6 3.9 -0.1
v 1.2 3.9 -0.1
v 1.9 4.3 -0.1
v 2.5 4.3 -0.1
v 1.9 4.3 -0.2
v 2.5 4.3 -0.2
v 0.6 4.6 0
v 1.2 4.6 0
v 0.6 4.6 -0.1
v 1.2 4.6 -0.1
v 3.2 5.3 -2.3
v 3.5 5.3 -2.3
v 3.2 5.3 -3.5
v 3.5 5.3 -3.5
v 0 5.9 -0.1
v 3.2 5.9 -0.1
v 0 5.9 -4
v 3.2 5.9 -4
v 0 2.1 -0.1
v 3.2 2.1 -0.1
v 0.4 2.1 -0.5
v 0.5 2.1 -0.5
v 0.8 2.1 -0.5
v 0.9 2.1 -0.5
v 0.4 2.1 -0.6
v 0.5 2.1 -0.6
v 0.8 2.1 -0.6
v 0.9 2.1 -0.6
v 0.4 2.1 -0.9
v 0.5 2.1 -0.9
v 0.8 2.1 -0.9
v 0.9 2.1 -0.9
v 0.4 2.1 -1
v 0.5 2.1 -1
v 0.8 2.1 -1
v 0.9 2.1 -1
v 3.2 2.1 -2.3
v 3.5 2.1 -2.3
v 3.2 2.1 -3.5
v 3.3 2.1 -3.5
v 3.5 2.1 -3.5
v 0 2.1 -4
v 3.2 2.1 -4
v 0.4 2.6 -0.5
v 0.9 2.6 -0.5
v 0.5 2.6 -0.7
v 0.8 2.6 -0.7
v 0.5 2.6 -0.8
v 0.8 2.6 -0.8
v 0.4 2.6 -1
v 0.9 2.6 -1
v 0.5 2.7 -0.7
v 0.6 2.7 -0.7
v 0.7 2.7 -0.7
v 0.8 2.7 -0.7
v 0.5 2.7 -0.8
v 0.6 2.7 -0.8
v 0.7 2.7 -0.8
v 0.8 2.7 -0.8
v 0.6 3.1 -0.7
v 0.7 3.1 -0.7
v 0.6 3.1 -0.8
v 0.7 3.1 -0.8
v 0.5 3.2 -0.6
v 0.8 3.2 -0.6
v 0.6 3.2 -0.7
v 0.7 3.2 -0.7
v 0.6 3.2 -0.8
v 0.7 3.2 -0.8
v 0.5 3.2 -0.9
v 0.8 3.2 -0.9
v 0.6 3.3 0
v 1.2 3.3 0
v 0.6 3.3 -0.1
v 1.2 3.3 -0.1
v 1.9 3.5 -0.1
v 2.5 3.5 -0.1
v 1.9 3.5 -0.2
v 2.5 3.5 -0.2
v 0.6 4 0
v 1.2 4 0
v 0.6 4 -0.1
v 1.2 4 -0.1
v 1.8 4.4 -0.1
v 2.6 4.4 -0.1
v 1.8 4.4 -0.3
v 2.6 4.4 -0.3
v 0 6 0
v 3.5 6 0
v 0 6 -4
v 3.5 6 -4

# faces
f 3/3/1 2/3/1 1/3/1
f 4/3/1 2/3/1 3/3/1
f 5/3/1 2/3/1 4/3/1
f 6/1/1 4/1/1 3/1/1
f 7/1/1 4/1/1 6/1/1
f 8/3/1 7/3/1 6/3/1
f 10/3/1 8/3/1 6/3/1
f 10/3/1 9/3/1 8/3/1
f 11/3/1 9/3/1 10/3/1
f 16/4/1 13/4/1 12/4/1
f 17/4/1 15/4/1 14/4/1
f 18/4/1 16/4/1 12/4/1
f 18/4/1 17/4/1 16/4/1
f 19/4/1 15/4/1 17/4/1
f 19/4/1 17/4/1 18/4/1
f 22/3/1 21/3/1 20/3/1
f 23/3/1 21/3/1 22/3/1
f 26/2/1 25/2/1 24/2/1
f 27/2/1 25/2/1 26/2/1
f 30/3/1 29/3/1 28/3/1
f 31/3/1 29/3/1 30/3/1
f 34/2/1 33/2/1 32/2/1
f 35/2/1 33/2/1 34/2/1
f 40/4/1 37/4/1 36/4/1
f 41/4/1 37/4/1 40/4/1
f 42/4/1 39/4/1 38/4/1
f 43/4/1 39/4/1 42/4/1
f 46/3/1 45/3/1 44/3/1
f 47/3/1 45/3/1 46/3/1
f 50/3/1 49/3/1 48/3/1
f 51/3/1 49/3/1 50/3/1
f 54/6/1 53/6/1 52/6/1
f 55/6/1 53/6/1 54/6/1
f 58/6/1 57/6/1 56/6/1
f 59/6/1 58/6/1 56/6/1
f 60/6/1 59/6/1 56/6/1
f 61/6/1 60/6/1 56/6/1
f 62/6/1 61/6/1 56/6/1
f 63/6/1 61/6/1 62/6/1
f 68/1/1 65/1/1 64/1/1
f 69/1/1 65/1/1 68/1/1
f 70/1/1 67/1/1 66/1/1
f 71/1/1 67/1/1 70/1/1
f 72/3/1 69/3/1 68/3/1
f 73/3/1 71/3/1 70/3/1
f 74/3/1 72/3/1 68/3/1
f 74/3/1 73/3/1 72/3/1
f 75/3/1 71/3/1 73/3/1
f 75/3/1 73/3/1 74/3/1
f 76/4/2 77/4/2 80/4/2
f 80/4/2 77/4/2 81/4/2
f 78/4/2 79/4/2 82/4/2
f 82/4/2 79/4/2 83/4/2
f 84/2/2 85/2/2 86/2/2
f 86/2/2 85/2/2 87/2/2
f 88/3/2 89/3/2 90/3/2
f 90/3/2 89/3/2 91/3/2
f 92/3/2 93/3/2 94/3/2
f 94/3/2 93/3/2 95/3/2
f 96/3/2 97/3/2 98/3/2
f 98/3/2 97/3/2 99/3/2
f 100/3/2 101/3/2 102/3/2
f 102/3/2 101/3/2 103/3/2
f 104/2/2 105/2/2 106/2/2
f 106/2/2 105/2/2 107/2/2
f 108/4/2 109/4/2 112/4/2
f 110/4/2 111/4/2 113/4/2
f 108/4/2 112/4/2 114/4/2
f 112/4/2 113/4/2 114/4/2
f 113/4/2 111/4/2 115/4/2
f 114/4/2 113/4/2 115/4/2
f 116/6/2 117/6/2 118/6/2
f 116/6/2 118/6/2 119/6/2
f 116/6/2 119/6/2 120/6/2
f 120/6/2 119/6/2 121/6/2
f 122/6/2 123/6/2 124/6/2
f 124/6/2 123/6/2 125/6/2
f 126/3/2 127/3/2 128/3/2
f 128/3/2 127/3/2 129/3/2
f 129/3/2 127/3/2 130/3/2
f 126/3/2 128/3/2 131/3/2
f 128/1/2 129/1/2 131/1/2
f 131/1/2 129/1/2 132/1/2
f 131/3/2 132/3/2 133/3/2
f 130/3/2 127/3/2 134/3/2
f 131/3/2 133/3/2 135/3/2
f 133/3/2 134/3/2 135/3/2
f 126/3/2 131/3/2 135/3/2
f 134/3/2 127/3/2 136/3/2
f 135/3/2 134/3/2 136/3/2
f 141/3/3 140/3/3 139/3/3
f 142/3/3 140/3/3 141/3/3
f 143/1/3 142/1/3 141/1/3
f 144/1/3 142/1/3 143/1/3
f 145/3/3 144/3/3 143/3/3
f 146/3/3 144/3/3 145/3/3
f 147/3/3 144/3/3 146/3/3
f 148/3/3 144/3/3 147/3/3
f 149/3/3 145/3/3 143/3/3
f 150/3/3 147/3/3 146/3/3
f 151/3/3 147/3/3 150/3/3
f 152/3/3 144/3/3 148/3/3
f 153/1/3 143/1/3 141/1/3
f 153/3/3 152/3/3 151/3/3
f 153/3/3 151/3/3 150/3/3
f 153/3/3 149/3/3 143/3/3
f 153/3/3 150/3/3 149/3/3
f 154/3/3 144/3/3 152/3/3
f 154/3/3 152/3/3 153/3/3
f 154/1/3 142/1/3 144/1/3
f 155/3/3 141/3/3 139/3/3
f 155/1/3 153/1/3 141/1/3
f 155/1/3 154/1/3 153/1/3
f 156/1/3 142/1/3 154/1/3
f 156/1/3 154/1/3 155/1/3
f 156/3/3 140/3/3 142/3/3
f 157/3/3 138/3/3 137/3/3
f 157/1/3 139/1/3 138/1/3
f 158/3/3 156/3/3 155/3/3
f 158/1/3 139/1/3 157/1/3
f 158/3/3 155/3/3 139/3/3
f 159/3/3 157/3/3 137/3/3
f 159/3/3 158/3/3 157/3/3
f 160/3/3 140/3/3 156/3/3
f 160/3/3 158/3/3 159/3/3
f 160/3/3 156/3/3 158/3/3
f 165/7/3 162/7/3 161/7/3
f 165/9/3 163/9/3 162/9/3
f 166/8/3 164/8/3 163/8/3
f 166/9/3 163/9/3 165/9/3
f 167/8/3 164/8/3 166/8/3
f 168/8/3 164/8/3 167/8/3
f 169/7/3 166/7/3 165/7/3
f 169/8/3 167/8/3 166/8/3
f 170/8/3 167/8/3 169/8/3
f 171/7/3 165/7/3 161/7/3
f 171/7/3 169/7/3 165/7/3
f 171/7/3 170/7/3 169/7/3
f 172/7/3 170/7/3 171/7/3
f 173/8/3 167/8/3 170/8/3
f 173/7/3 170/7/3 172/7/3
f 174/5/3 168/5/3 167/5/3
f 174/8/3 167/8/3 173/8/3
f 175/8/3 164/8/3 168/8/3
f 175/5/3 168/5/3 174/5/3
f 176/4/3 172/4/3 171/4/3
f 176/7/3 171/7/3 161/7/3
f 177/8/3 174/8/3 173/8/3
f 177/4/3 172/4/3 176/4/3
f 177/8/3 173/8/3 172/8/3
f 177/8/3 175/8/3 174/8/3
f 178/8/3 175/8/3 177/8/3
f 179/8/3 175/8/3 178/8/3
f 180/8/3 178/8/3 177/8/3
f 180/5/3 179/5/3 178/5/3
f 181/8/3 175/8/3 179/8/3
f 181/5/3 179/5/3 180/5/3
f 182/8/3 175/8/3 181/8/3
f 183/7/3 176/7/3 161/7/3
f 184/9/3 177/9/3 176/9/3
f 184/7/3 176/7/3 183/7/3
f 185/8/3 180/8/3 177/8/3
f 185/9/3 177/9/3 184/9/3
f 185/8/3 181/8/3 180/8/3
f 186/5/3 182/5/3 181/5/3
f 186/8/3 181/8/3 185/8/3
f 187/8/3 175/8/3 182/8/3
f 187/5/3 182/5/3 186/5/3
f 188/8/3 164/8/3 175/8/3
f 188/8/3 175/8/3 187/8/3
f 191/4/3 190/4/3 189/4/3
f 192/4/3 190/4/3 191/4/3
f 194/4/3 190/4/3 192/4/3
f 195/4/3 194/4/3 193/4/3
f 196/4/3 190/4/3 194/4/3
f 196/4/3 194/4/3 195/4/3
f 199/2/3 198/2/3 197/2/3
f 200/2/3 198/2/3 199/2/3
f 203/3/3 202/3/3 201/3/3
f 205/3/3 203/3/3 201/3/3
f 205/3/3 204/3/3 203/3/3
f 206/3/3 204/3/3 205/3/3
f 207/3/3 205/3/3 201/3/3
f 208/3/3 205/3/3 207/3/3
f 211/2/3 210/2/3 209/2/3
f 212/2/3 210/2/3 211/2/3
f 215/4/3 214/4/3 213/4/3
f 216/4/3 214/4/3 215/4/3
f 219/4/3 218/4/3 217/4/3
f 220/4/3 218/4/3 219/4/3
f 224/1/3 222/1/3 221/1/3
f 225/3/3 223/3/3 222/3/3
f 225/1/3 222/1/3 224/1/3
f 226/3/3 225/3/3 224/3/3
f 227/3/3 223/3/3 225/3/3
f 227/3/3 225/3/3 226/3/3
f 229/3/4 230/3/4 231/3/4
f 231/3/4 230/3/4 232/3/4
f 231/1/4 232/1/4 233/1/4
f 233/1/4 232/1/4 234/1/4
f 233/3/4 234/3/4 235/3/4
f 235/3/4 234/3/4 236/3/4
f 236/3/4 234/3/4 237/3/4
f 237/3/4 234/3/4 238/3/4
f 233/3/4 235/3/4 239/3/4
f 236/3/4 237/3/4 240/3/4
f 240/3/4 237/3/4 241/3/4
f 238/3/4 234/3/4 242/3/4
f 231/1/4 233/1/4 243/1/4
f 241/3/4 242/3/4 243/3/4
f 240/3/4 241/3/4 243/3/4
f 233/3/4 239/3/4 243/3/4
f 239/3/4 240/3/4 243/3/4
f 242/3/4 234/3/4 244/3/4
f 243/3/4 242/3/4 244/3/4
f 234/1/4 232/1/4 244/1/4
f 229/3/4 231/3/4 245/3/4
f 231/1/4 243/1/4 245/1/4
f 243/1/4 244/1/4 245/1/4
f 244/1/4 232/1/4 246/1/4
f 245/1/4 244/1/4 246/1/4
f 232/3/4 230/3/4 246/3/4
f 245/3/4 246/3/4 247/3/4
f 247/3/4 246/3/4 248/3/4
f 249/3/4 250/3/4 251/3/4
f 251/3/4 250/3/4 252/3/4
f 245/3/4 247/3/4 253/3/4
f 248/3/4 246/3/4 254/3/4
f 228/1/4 229/1/4 255/1/4
f 253/3/4 254/3/4 256/3/4
f 255/1/4 229/1/4 256/1/4
f 229/3/4 245/3/4 256/3/4
f 245/3/4 253/3/4 256/3/4
f 254/3/4 246/3/4 257/3/4
f 256/3/4 254/3/4 257/3/4
f 246/3/4 230/3/4 257/3/4
f 258/6/4 259/6/4 260/6/4
f 260/6/4 259/6/4 261/6/4
f 261/6/4 259/6/4 262/6/4
f 262/6/4 259/6/4 263/6/4
f 260/7/4 261/7/4 264/7/4
f 261/9/4 262/9/4 264/9/4
f 262/8/4 263/8/4 265/8/4
f 264/9/4 262/9/4 265/9/4
f 265/8/4 263/8/4 266/8/4
f 266/8/4 263/8/4 267/8/4
f 264/7/4 265/7/4 268/7/4
f 265/8/4 266/8/4 268/8/4
f 268/8/4 266/8/4 269/8/4
f 260/7/4 264/7/4 270/7/4
f 264/7/4 268/7/4 270/7/4
f 268/7/4 269/7/4 270/7/4
f 270/7/4 269/7/4 271/7/4
f 269/8/4 266/8/4 272/8/4
f 271/7/4 269/7/4 272/7/4
f 266/5/4 267/5/4 273/5/4
f 272/8/4 266/8/4 273/8/4
f 267/8/4 263/8/4 274/8/4
f 273/5/4 267/5/4 274/5/4
f 270/4/4 271/4/4 275/4/4
f 260/7/4 270/7/4 275/7/4
f 272/8/4 273/8/4 276/8/4
f 275/4/4 271/4/4 276/4/4
f 271/8/4 272/8/4 276/8/4
f 273/8/4 274/8/4 276/8/4
f 276/8/4 274/8/4 277/8/4
f 277/8/4 274/8/4 278/8/4
f 276/8/4 277/8/4 279/8/4
f 277/5/4 278/5/4 279/5/4
f 278/8/4 274/8/4 280/8/4
f 279/5/4 278/5/4 280/5/4
f 280/8/4 274/8/4 281/8/4
f 258/6/4 260/6/4 282/6/4
f 260/7/4 275/7/4 282/7/4
f 275/9/4 276/9/4 283/9/4
f 282/7/4 275/7/4 283/7/4
f 276/8/4 279/8/4 284/8/4
f 283/9/4 276/9/4 284/9/4
f 279/8/4 280/8/4 284/8/4
f 280/5/4 281/5/4 285/5/4
f 284/8/4 280/8/4 285/8/4
f 281/8/4 274/8/4 286/8/4
f 285/5/4 281/5/4 286/5/4
f 263/6/4 259/6/4 287/6/4
f 286/8/4 274/8/4 287/8/4
f 274/8/4 263/8/4 287/8/4
f 284/6/4 285/6/4 288/6/4
f 285/6/4 286/6/4 288/6/4
f 286/6/4 287/6/4 288/6/4
f 258/6/4 282/6/4 288/6/4
f 283/6/4 284/6/4 288/6/4
f 282/6/4 283/6/4 288/6/4
f 287/6/4 259/6/4 289/6/4
f 288/6/4 287/6/4 289/6/4
f 290/4/4 291/4/4 292/4/4
f 292/4/4 291/4/4 293/4/4
f 294/4/4 295/4/4 296/4/4
f 296/4/4 295/4/4 297/4/4
f 298/2/4 299/2/4 300/2/4
f 300/2/4 299/2/4 301/2/4
f 302/3/4 303/3/4 304/3/4
f 302/3/4 304/3/4 306/3/4
f 304/3/4 305/3/4 306/3/4
f 306/3/4 305/3/4 307/3/4
f 302/3/4 306/3/4 308/3/4
f 308/3/4 306/3/4 309/3/4
f 310/2/4 311/2/4 312/2/4
f 312/2/4 311/2/4 313/2/4
f 314/4/4 315/4/4 316/4/4
f 316/4/4 315/4/4 317/4/4
f 317/4/4 315/4/4 319/4/4
f 318/4/4 319/4/4 320/4/4
f 319/4/4 315/4/4 321/4/4
f 320/4/4 319/4/4 321/4/4
f 322/1/4 323/1/4 325/1/4
f 323/3/4 324/3/4 326/3/4
f 325/1/4 323/1/4 326/1/4
f 326/3/4 324/3/4 327/3/4
f 328/3/4 329/3/4 332/3/4
f 330/3/4 331/3/4 334/3/4
f 332/1/4 333/1/4 335/1/4
f 328/3/4 332/3/4 335/3/4
f 333/3/4 334/3/4 336/3/4
f 335/1/4 333/1/4 336/1/4
f 328/3/4 335/3/4 337/3/4
f 335/3/4 336/3/4 337/3/4
f 336/3/4 334/3/4 338/3/4
f 337/3/4 336/3/4 338/3/4
f 334/3/4 331/3/4 338/3/4
f 341/3/5 340/3/5 339/3/5
f 342/3/5 340/3/5 341/3/5
f 346/4/5 344/4/5 343/4/5
f 347/4/5 344/4/5 346/4/5
f 349/4/5 346/4/5 345/4/5
f 349/4/5 348/4/5 347/4/5
f 349/4/5 347/4/5 346/4/5
f 350/4/5 348/4/5 349/4/5
f 351/4/5 348/4/5 350/4/5
f 352/4/5 348/4/5 351/4/5
f 353/4/5 351/4/5 350/4/5
f 354/4/5 351/4/5 353/4/5
f 357/2/5 356/2/5 355/2/5
f 358/2/5 356/2/5 357/2/5
f 359/2/5 357/2/5 355/2/5
f 360/2/5 356/2/5 358/2/5
f 361/2/5 359/2/5 355/2/5
f 361/2/5 360/2/5 359/2/5
f 362/2/5 356/2/5 360/2/5
f 362/2/5 360/2/5 361/2/5
f 365/6/5 364/6/5 363/6/5
f 366/6/5 364/6/5 365/6/5
f 369/3/5 368/3/5 367/3/5
f 370/3/5 368/3/5 369/3/5
f 373/6/5 372/6/5 371/6/5
f 374/6/5 372/6/5 373/6/5
f 377/3/5 376/3/5 375/3/5
f 378/3/5 376/3/5 377/3/5
f 381/3/5 380/3/5 379/3/5
f 382/3/5 380/3/5 381/3/5
f 385/3/5 384/3/5 383/3/5
f 386/3/5 384/3/5 385/3/5
f 387/3/6 388/3/6 389/3/6
f 389/3/6 388/3/6 390/3/6
f 390/3/6 388/3/6 391/3/6
f 391/3/6 388/3/6 392/3/6
f 387/3/6 389/3/6 393/3/6
f 390/3/6 391/3/6 394/3/6
f 394/3/6 391/3/6 395/3/6
f 392/3/6 388/3/6 396/3/6
f 394/3/6 395/3/6 397/3/6
f 395/3/6 396/3/6 397/3/6
f 387/3/6 393/3/6 397/3/6
f 393/3/6 394/3/6 397/3/6
f 397/3/6 396/3/6 398/3/6
f 398/3/6 396/3/6 399/3/6
f 396/3/6 388/3/6 400/3/6
f 399/3/6 396/3/6 400/3/6
f 387/3/6 397/3/6 401/3/6
f 398/3/6 399/3/6 402/3/6
f 402/3/6 399/3/6 403/3/6
f 400/3/6 388/3/6 404/3/6
f 402/3/6 403/3/6 405/3/6
f 403/3/6 404/3/6 405/3/6
f 404/3/6 388/3/6 405/3/6
f 401/3/6 402/3/6 405/3/6
f 401/3/6 405/3/6 407/3/6
f 405/3/6 406/3/6 407/3/6
f 407/3/6 406/3/6 408/3/6
f 408/3/6 406/3/6 409/3/6
f 387/3/6 401/3/6 410/3/6
f 401/3/6 407/3/6 410/3/6
f 410/3/6 407/3/6 411/3/6
f 412/4/6 413/4/6 414/4/6
f 414/4/6 413/4/6 415/4/6
f 412/4/6 414/4/6 416/4/6
f 415/4/6 413/4/6 417/4/6
f 412/4/6 416/4/6 418/4/6
f 416/4/6 417/4/6 418/4/6
f 417/4/6 413/4/6 419/4/6
f 418/4/6 417/4/6 419/4/6
f 420/3/6 421/3/6 424/3/6
f 424/3/6 421/3/6 425/3/6
f 422/3/6 423/3/6 426/3/6
f 426/3/6 423/3/6 427/3/6
f 428/2/6 429/2/6 430/2/6
f 430/2/6 429/2/6 431/2/6
f 432/2/6 433/2/6 434/2/6
f 434/2/6 433/2/6 435/2/6
f 432/2/6 434/2/6 436/2/6
f 435/2/6 433/2/6 437/2/6
f 432/2/6 436/2/6 438/2/6
f 436/2/6 437/2/6 438/2/6
f 437/2/6 433/2/6 439/2/6
f 438/2/6 437/2/6 439/2/6
f 440/3/6 441/3/6 442/3/6
f 442/3/6 441/3/6 443/3/6
f 444/6/6 445/6/6 446/6/6
f 446/6/6 445/6/6 447/6/6
f 448/3/6 449/3/6 450/3/6
f 450/3/6 449/3/6 451/3/6
f 452/6/6 453/6/6 454/6/6
f 454/6/6 453/6/6 455/6/6
f 456/3/6 457/3/6 458/3/6
f 458/3/6 457/3/6 459/3/6
